<svg xmlns="http://www.w3.org/2000/svg" width="621" height="402" viewBox="0 0 621 402" version="1.1"><path d="M 168.356 80.689 C 168.735 81.068, 167.122 83.431, 164.773 85.939 L 160.500 90.500 165.250 86.042 C 170.050 81.537, 170.961 80, 168.833 80 C 168.192 80, 167.977 80.310, 168.356 80.689 M 451.167 80.857 C 451.350 81.328, 453.706 84.141, 456.402 87.107 C 459.098 90.073, 460.822 91.600, 460.234 90.500 C 459.646 89.400, 457.570 86.966, 455.621 85.092 C 453.672 83.217, 452.312 81.304, 452.598 80.842 C 452.884 80.379, 452.604 80, 451.976 80 C 451.347 80, 450.983 80.386, 451.167 80.857 M 161.500 82 C 158.952 83.095, 161.581 83.095, 165 82 C 167.010 81.356, 167.108 81.194, 165.500 81.170 C 164.400 81.154, 162.600 81.527, 161.500 82 M 475.418 88.541 C 478.672 89.893, 481.495 90.838, 481.691 90.642 C 482.156 90.177, 472.070 85.987, 470.617 86.042 C 470.002 86.066, 472.163 87.190, 475.418 88.541 M 487.083 93.380 C 488.103 94.309, 498 98.982, 498 98.534 C 498 97.970, 488.450 93, 487.367 93 C 486.982 93, 486.854 93.171, 487.083 93.380 M 156.320 106 C 156.320 109.575, 156.502 111.037, 156.723 109.250 C 156.945 107.463, 156.945 104.537, 156.723 102.750 C 156.502 100.963, 156.320 102.425, 156.320 106 M 464.300 106 C 464.300 109.025, 464.487 110.263, 464.716 108.750 C 464.945 107.237, 464.945 104.763, 464.716 103.250 C 464.487 101.737, 464.300 102.975, 464.300 106 M 286.503 112.177 C 286.140 113.100, 286.041 114.900, 286.285 116.177 C 286.656 118.123, 286.757 118.012, 286.909 115.500 C 287.089 112.517, 287.104 112.526, 289.500 117 C 290.825 119.475, 291.910 121.050, 291.910 120.500 C 291.910 119.950, 290.842 117.475, 289.537 115 C 287.706 111.526, 287.014 110.882, 286.503 112.177 M 330.505 116.392 C 329.081 119.613, 328.095 122.428, 328.315 122.648 C 328.534 122.867, 329.761 120.674, 331.041 117.774 L 333.369 112.500 334.034 117 L 334.700 121.500 334.834 117.500 C 335.078 110.281, 333.398 109.851, 330.505 116.392 M 158 117.373 C 158 118.453, 161.972 126, 162.541 126 C 162.816 126, 162.076 124.088, 160.897 121.750 C 158.579 117.153, 158 116.278, 158 117.373 M 285.272 124 C 285.272 126.475, 285.467 127.487, 285.706 126.250 C 285.944 125.013, 285.944 122.987, 285.706 121.750 C 285.467 120.513, 285.272 121.525, 285.272 124 M 335.252 126.500 C 335.263 128.700, 335.468 129.482, 335.707 128.238 C 335.946 126.994, 335.937 125.194, 335.687 124.238 C 335.437 123.282, 335.241 124.300, 335.252 126.500 M 326.111 127.111 C 325.495 128.878, 325.166 130.499, 325.380 130.713 C 325.594 130.927, 326.273 129.656, 326.889 127.889 C 327.505 126.122, 327.834 124.501, 327.620 124.287 C 327.406 124.073, 326.727 125.344, 326.111 127.111 M 74.462 133.250 L 69.500 138.500 74.750 133.538 C 77.638 130.808, 80 128.446, 80 128.288 C 80 127.541, 79.074 128.372, 74.462 133.250 M 551 138.500 C 555.651 143.175, 559.681 147, 559.956 147 C 560.231 147, 556.651 143.175, 552 138.500 C 547.349 133.825, 543.319 130, 543.044 130 C 542.769 130, 546.349 133.825, 551 138.500 M 445 141.244 C 440.875 145.181, 438.850 147.448, 440.500 146.281 C 443.445 144.198, 453.870 133.960, 452.962 134.042 C 452.708 134.065, 449.125 137.306, 445 141.244 M 319.500 139 L 316.500 139.763 319.750 139.882 C 321.538 139.947, 323 139.550, 323 139 C 323 138.450, 322.887 138.053, 322.750 138.118 C 322.613 138.183, 321.150 138.580, 319.500 139 M 64 143.500 C 61.571 145.975, 59.809 148, 60.084 148 C 60.359 148, 62.571 145.975, 65 143.500 C 67.429 141.025, 69.191 139, 68.916 139 C 68.641 139, 66.429 141.025, 64 143.500 M 572.463 164.750 C 574.004 167.088, 575.456 169, 575.689 169 C 576.411 169, 572.582 162.914, 571.080 161.673 C 570.299 161.028, 570.921 162.412, 572.463 164.750 M 254.264 166.718 C 255.784 166.947, 258.034 166.941, 259.264 166.704 C 260.494 166.467, 259.250 166.279, 256.500 166.286 C 253.750 166.294, 252.744 166.488, 254.264 166.718 M 265.250 166.716 C 266.762 166.945, 269.238 166.945, 270.750 166.716 C 272.262 166.487, 271.025 166.300, 268 166.300 C 264.975 166.300, 263.738 166.487, 265.250 166.716 M 355.280 166.736 C 357.909 166.943, 361.959 166.940, 364.280 166.731 C 366.601 166.521, 364.450 166.352, 359.500 166.355 C 354.550 166.358, 352.651 166.530, 355.280 166.736 M 69.768 203.725 C 71.565 203.947, 74.265 203.943, 75.768 203.715 C 77.271 203.486, 75.800 203.304, 72.500 203.310 C 69.200 203.315, 67.971 203.502, 69.768 203.725 M 88.768 203.725 C 90.565 203.947, 93.265 203.943, 94.768 203.715 C 96.271 203.486, 94.800 203.304, 91.500 203.310 C 88.200 203.315, 86.971 203.502, 88.768 203.725 M 526.768 203.725 C 528.565 203.947, 531.265 203.943, 532.768 203.715 C 534.271 203.486, 532.800 203.304, 529.500 203.310 C 526.200 203.315, 524.971 203.502, 526.768 203.725 M 545.768 203.725 C 547.565 203.947, 550.265 203.943, 551.768 203.715 C 553.271 203.486, 551.800 203.304, 548.500 203.310 C 545.200 203.315, 543.971 203.502, 545.768 203.725 M 467.453 225.250 L 463.500 229.500 467.750 225.547 C 471.702 221.871, 472.460 221, 471.703 221 C 471.540 221, 469.627 222.912, 467.453 225.250 M 462.255 231.250 C 460.840 233.037, 458.849 237, 459.366 237 C 459.606 237, 460.732 235.425, 461.867 233.500 C 463.931 230.002, 464.123 228.891, 462.255 231.250 M 455.160 251.832 L 455 255.163 451.500 253 C 449.575 251.810, 448 251.062, 448 251.337 C 448 252.196, 455.077 256.256, 455.623 255.710 C 455.908 255.425, 455.956 253.687, 455.731 251.846 L 455.320 248.500 455.160 251.832 M 351.962 266.072 L 348.500 269.144 352.250 266.453 C 355.564 264.076, 356.642 263, 355.712 263 C 355.554 263, 353.866 264.382, 351.962 266.072 M 275 271.134 C 281.728 277.841, 292.937 287.861, 289 283.649 C 286.525 281.001, 281.800 276.541, 278.500 273.738 C 275.200 270.935, 273.625 269.764, 275 271.134 M 334.477 281.250 L 326.500 289.500 334.750 281.523 C 342.412 274.115, 343.456 273, 342.727 273 C 342.576 273, 338.864 276.712, 334.477 281.250 M 313.450 309.099 C 312.028 311.904, 311.033 314.367, 311.238 314.571 C 311.443 314.776, 312.818 312.482, 314.295 309.472 C 315.771 306.462, 316.766 304, 316.506 304 C 316.246 304, 314.871 306.295, 313.450 309.099 M 306.695 309.487 C 307.610 311.406, 308.536 312.797, 308.753 312.580 C 309.210 312.123, 306.175 306, 305.490 306 C 305.239 306, 305.781 307.569, 306.695 309.487 M 320.718 309.616 C 319.639 310.694, 322.009 313, 324.196 313 C 325.514 313, 326.039 312.433, 325.813 311.250 C 325.473 309.466, 321.986 308.347, 320.718 309.616" stroke="none" fill="#b9b528" fill-rule="evenodd"/><path d="M 159.441 83.491 C 136.870 90.168, 109.668 104.885, 88.500 121.870 C 60.703 144.174, 41.598 169.506, 33.706 194.524 C 30.948 203.269, 29.471 210, 30.310 210 C 30.603 210, 34.648 209.096, 39.299 207.992 C 88.217 196.373, 139.846 205.950, 157.429 229.904 C 161.954 236.068, 165 244.392, 165.149 251.003 L 165.260 255.951 167.880 254.102 C 178.645 246.506, 193.768 242, 208.500 242 C 221.779 242, 231.460 244.489, 245.500 251.514 C 271.726 264.636, 295.980 287.074, 306.794 308.220 L 310.608 315.679 312.344 311.482 C 317.071 300.053, 331.562 282.359, 345.414 271.102 C 369.677 251.384, 391.243 242, 412.295 242 C 424.936 242, 433.951 244.165, 445.585 249.996 L 454.670 254.549 455.839 247.734 C 457.429 238.464, 461.122 231.635, 468.404 224.500 C 476.505 216.562, 489.180 210.264, 503.816 206.903 C 527.501 201.464, 556.226 201.895, 581.387 208.066 C 585.725 209.130, 589.652 210, 590.112 210 C 591.998 210, 588.117 195.706, 582.986 183.757 C 566.920 146.340, 522.680 107.375, 474.486 88.190 C 468.979 85.998, 462.454 83.682, 459.986 83.043 C 457.519 82.404, 454.600 81.633, 453.500 81.330 C 452.067 80.936, 452.675 82.015, 455.645 85.140 C 467.461 97.568, 467.787 112.022, 456.628 128.807 C 454.081 132.639, 449.061 138.520, 445.472 141.877 C 429.459 156.856, 397.585 166.017, 360.312 166.351 L 343.724 166.500 342.314 162.500 C 339.897 155.643, 336.942 140.846, 335.102 126.385 L 333.336 112.500 330.821 118.029 C 329.437 121.070, 327.034 127.149, 325.479 131.538 L 322.652 139.519 310.364 139.509 L 298.077 139.500 294.941 130.520 C 293.216 125.581, 290.770 119.506, 289.506 117.020 L 287.208 112.500 286.553 118.500 C 284.495 137.361, 280.700 157.280, 277.811 164.399 L 276.634 167.298 259.567 166.663 C 213.961 164.965, 184.394 154.545, 168.327 134.509 C 153.505 116.025, 152.098 99.713, 164.185 86.488 C 166.943 83.470, 168.818 81.024, 168.350 81.053 C 167.883 81.082, 163.873 82.179, 159.441 83.491" stroke="none" fill="#fbf405" fill-rule="evenodd"/></svg>