<?xml version="1.0" standalone="no"?>
<!DOCTYPE svg PUBLIC "-//W3C//DTD SVG 20010904//EN"
 "http://www.w3.org/TR/2001/REC-SVG-20010904/DTD/svg10.dtd">
<svg version="1.0" xmlns="http://www.w3.org/2000/svg" viewBox="0 0 978.000000 600.000000">

<g transform="translate(0.000000,600.000000) scale(0.100000,-0.100000)"
fill="#000000" stroke="none">
<path d="M4376 4898 c-3 -7 -14 -161 -26 -343 -32 -495 -49 -626 -106 -808
-106 -333 -342 -562 -638 -616 -223 -41 -519 24 -699 152 -126 90 -232 237
-284 392 -25 74 -27 93 -27 255 -1 240 20 317 173 638 45 93 81 175 81 182 0
19 -52 6 -260 -65 -821 -279 -1210 -464 -1645 -785 -272 -200 -557 -490 -698
-711 -103 -161 -188 -375 -226 -568 -21 -101 -21 -131 -21 -1362 l0 -1259
4890 0 4891 0 -4 1283 -3 1282 -26 105 c-77 310 -212 555 -456 825 -175 194
-461 434 -685 575 -127 79 -546 293 -725 369 -366 156 -959 350 -978 320 -3
-5 28 -69 69 -142 138 -246 187 -398 194 -613 10 -256 -41 -419 -181 -588 -99
-120 -272 -226 -435 -267 -72 -18 -104 -20 -230 -16 -154 5 -219 17 -326 64
-246 108 -427 328 -500 608 -45 169 -57 276 -80 700 -18 336 -23 381 -42 397
-22 18 -38 -7 -153 -233 l-99 -196 -92 -6 c-51 -4 -158 -7 -238 -7 l-146 0
-94 178 c-121 228 -165 294 -175 260z"/>
</g>
</svg>
