<?xml version="1.0" standalone="no"?>
<!DOCTYPE svg PUBLIC "-//W3C//DTD SVG 20010904//EN"
 "http://www.w3.org/TR/2001/REC-SVG-20010904/DTD/svg10.dtd">
<svg version="1.0" xmlns="http://www.w3.org/2000/svg" viewBox="0 0 8504.000000 5669.000000"
 preserveAspectRatio="xMidYMid meet">

<g transform="translate(0.000000,5669.000000) scale(0.100000,-0.100000)"
fill="#000000" stroke="none">
<path d="M42490 39989 c-4292 -125 -8416 -1183 -11640 -2987 -1691 -946 -3087
-2058 -4170 -3322 -892 -1042 -1563 -2214 -1934 -3380 -309 -973 -434 -1979
-366 -2945 103 -1457 600 -2864 1480 -4195 1168 -1763 2953 -3311 5255 -4555
234 -126 895 -455 1152 -573 2792 -1280 6064 -2051 9493 -2236 1022 -56 2149
-56 3180 -1 4670 251 9026 1593 12240 3773 1790 1214 3185 2671 4057 4237 864
1552 1223 3171 1067 4815 -162 1718 -914 3422 -2182 4943 -436 524 -1005 1096
-1577 1587 -1237 1061 -2841 2034 -4595 2787 -2597 1115 -5609 1808 -8700
2003 -895 56 -1897 74 -2760 49z m667 -785 c214 -44 405 -165 515 -327 130
-191 154 -433 62 -637 -15 -33 -25 -62 -23 -64 2 -2 28 -24 58 -49 195 -166
301 -391 301 -641 0 -231 -82 -420 -259 -596 -133 -133 -280 -215 -480 -267
-93 -24 -111 -26 -551 -33 -250 -5 -456 -7 -459 -5 -4 5 -30 1990 -31 2378 l0
257 395 0 c322 0 410 -3 472 -16z m2418 -125 c138 -12 252 -24 254 -25 7 -6
597 -2685 592 -2688 -7 -3 -601 53 -616 58 -6 2 -26 73 -44 157 -19 85 -37
158 -41 162 -4 4 -173 23 -376 42 -203 19 -385 37 -405 40 l-37 5 -67 -153
c-37 -83 -69 -153 -70 -155 -3 -3 -627 56 -631 60 -1 2 252 572 564 1266 l566
1263 31 -5 c16 -3 143 -15 280 -27z m-4592 -1301 c310 -689 564 -1254 562
-1256 -5 -6 -610 -72 -620 -68 -6 2 -40 69 -75 150 -63 141 -66 146 -95 145
-47 0 -785 -85 -790 -91 -3 -3 -21 -76 -39 -162 -19 -87 -36 -159 -38 -161 -5
-5 -622 -74 -626 -70 -4 4 584 2695 590 2700 4 4 495 62 539 64 25 1 46 -43
592 -1251z m6766 1071 c427 -72 778 -133 779 -135 5 -4 -94 -583 -101 -590 -2
-3 -114 14 -246 37 -133 22 -244 40 -245 38 -2 -2 -74 -423 -160 -936 -86
-512 -162 -959 -167 -992 -8 -45 -15 -61 -27 -61 -9 0 -141 21 -294 47 -260
43 -278 48 -278 67 0 12 74 460 165 996 91 536 161 977 157 981 -4 3 -113 23
-242 44 -129 21 -236 39 -238 40 -3 2 83 526 93 573 3 12 10 22 17 22 6 0 360
-59 787 -131z m-9509 -194 c140 -21 261 -59 388 -122 62 -31 115 -60 118 -64
3 -5 -66 -120 -152 -257 -87 -136 -158 -248 -159 -250 -1 -1 -35 13 -76 33
-41 19 -103 42 -139 52 -80 21 -253 23 -330 4 -312 -77 -530 -337 -547 -650
-8 -131 14 -238 74 -361 38 -79 59 -108 132 -180 71 -72 102 -95 181 -134 124
-61 213 -79 350 -73 208 9 406 109 525 266 22 28 45 49 52 47 16 -6 465 -296
480 -310 34 -31 -207 -291 -360 -390 -229 -150 -466 -219 -742 -218 -446 1
-838 214 -1082 590 -143 218 -213 457 -213 726 0 271 72 505 225 736 65 98
240 274 335 337 286 191 616 268 940 218z m11795 -280 c264 -54 514 -190 692
-378 65 -69 173 -210 173 -227 0 -4 -113 -76 -252 -160 l-252 -153 -25 34
c-13 19 -57 66 -97 106 -82 80 -207 150 -324 179 -86 22 -245 22 -330 0 -467
-120 -684 -644 -438 -1061 51 -85 153 -187 239 -238 194 -114 463 -129 658
-37 34 17 67 30 71 30 13 0 311 -500 304 -511 -10 -17 -163 -89 -252 -119
-152 -50 -232 -63 -407 -63 -179 0 -293 18 -452 74 -428 150 -747 517 -845
972 -30 144 -30 370 0 514 60 279 168 480 361 674 210 211 475 342 764 379 99
12 316 4 412 -15z m-13490 -1409 c184 -687 334 -1251 332 -1252 -10 -10 -572
-153 -577 -147 -7 8 -672 2487 -674 2512 -1 10 77 35 284 91 251 68 286 76
293 61 4 -9 158 -578 342 -1265z m15784 754 l266 -91 -3 -212 c-19 -1333 -40
-2528 -44 -2532 -4 -4 -511 162 -582 191 -17 7 -18 18 -15 172 l4 164 -390
133 -390 133 -99 -129 c-54 -71 -105 -129 -112 -129 -22 0 -589 197 -587 204
2 11 1675 2186 1681 2186 2 0 124 -41 271 -90z m-17688 -995 c177 -517 325
-944 329 -948 4 -4 209 62 455 147 247 85 450 154 451 153 12 -16 192 -563
187 -568 -9 -8 -1465 -511 -1468 -507 -3 5 -844 2453 -847 2466 -2 10 82 44
277 112 154 54 283 95 286 91 4 -3 152 -429 330 -946z m19189 466 c244 -109
265 -121 263 -142 -5 -45 -193 -1614 -197 -1636 -2 -13 -2 -23 -1 -23 1 0 260
283 574 629 l573 629 272 -123 c149 -67 280 -126 290 -132 15 -8 -113 -151
-928 -1031 l-946 -1021 -32 14 c-64 26 -481 215 -485 219 -4 4 294 2691 303
2733 4 19 8 21 27 13 12 -6 141 -64 287 -129z m-21054 -252 c181 -25 314 -89
434 -209 121 -121 189 -283 190 -451 l0 -66 63 -17 c88 -24 230 -96 311 -157
130 -99 242 -273 286 -444 41 -162 22 -378 -50 -546 -71 -167 -226 -353 -380
-454 -63 -42 -824 -405 -847 -405 -14 1 -1107 2380 -1097 2389 21 19 674 311
739 330 128 39 229 47 351 30z m-1230 -1436 c460 -749 496 -814 530 -968 27
-126 23 -324 -9 -447 -49 -185 -136 -339 -266 -469 -127 -126 -278 -213 -451
-260 -72 -20 -110 -24 -245 -24 -188 0 -269 17 -424 90 -158 75 -290 185 -385
319 -59 84 -886 1431 -886 1444 0 10 484 312 500 312 5 0 205 -320 446 -712
241 -391 455 -729 475 -749 75 -75 195 -116 307 -106 256 24 423 289 333 527
-10 25 -210 358 -446 740 -235 382 -430 702 -432 710 -3 11 70 60 244 167 136
84 251 153 255 153 4 0 208 -327 454 -727z m25016 276 c398 -231 724 -422 726
-424 1 -1 -66 -120 -150 -263 l-152 -261 -30 18 c-114 70 -890 521 -896 521
-9 0 -204 -330 -198 -335 1 -1 167 -99 368 -216 201 -116 369 -215 373 -219 5
-5 -60 -125 -143 -268 l-153 -259 -374 219 c-207 121 -379 216 -383 211 -13
-13 -200 -333 -200 -342 0 -4 207 -129 460 -277 253 -147 460 -271 460 -274 0
-13 -300 -515 -307 -513 -4 1 -330 190 -723 421 -470 275 -714 424 -712 433 3
13 1304 2248 1309 2249 2 0 328 -189 725 -421z m-12247 371 c584 -23 1108 -55
1485 -90 450 -42 502 -48 885 -94 348 -43 783 -105 955 -136 30 -6 98 -17 150
-26 52 -8 129 -21 170 -29 41 -7 140 -26 220 -40 172 -32 560 -109 680 -136
47 -11 137 -31 200 -45 131 -28 488 -114 600 -144 41 -11 129 -34 195 -51 66
-17 156 -42 200 -55 44 -13 98 -28 120 -33 22 -5 63 -16 90 -25 28 -8 91 -26
140 -41 270 -79 424 -127 703 -221 336 -112 829 -291 972 -351 19 -8 44 -19
55 -23 11 -5 45 -19 75 -30 61 -24 69 -28 155 -64 33 -14 105 -44 160 -67 107
-44 131 -54 300 -131 177 -81 232 -106 375 -175 169 -82 354 -174 445 -223 39
-20 115 -61 170 -90 84 -45 316 -174 430 -240 514 -296 1163 -743 1553 -1069
299 -251 421 -360 650 -585 615 -604 1115 -1287 1414 -1931 88 -190 105 -228
152 -347 404 -1025 453 -2096 143 -3138 -27 -91 -111 -335 -132 -385 -7 -16
-20 -50 -30 -75 -98 -245 -262 -572 -408 -810 -405 -665 -862 -1191 -1597
-1844 -58 -51 -198 -166 -325 -267 -109 -86 -166 -129 -390 -294 -202 -149
-485 -338 -730 -487 -99 -61 -197 -121 -217 -134 -21 -13 -40 -24 -43 -24 -3
0 -22 -11 -43 -24 -20 -12 -109 -64 -197 -113 -393 -221 -858 -454 -1265 -633
-102 -45 -203 -90 -225 -100 -124 -55 -257 -109 -760 -305 -33 -13 -100 -38
-150 -55 -49 -18 -103 -38 -120 -45 -61 -26 -694 -236 -845 -280 -25 -7 -83
-25 -130 -40 -336 -104 -761 -218 -1305 -350 -71 -17 -446 -100 -525 -116 -30
-6 -82 -17 -115 -25 -33 -7 -157 -31 -275 -53 -118 -23 -237 -45 -265 -51 -47
-9 -435 -74 -630 -105 -155 -25 -531 -77 -835 -115 -152 -20 -517 -58 -655
-70 -60 -5 -191 -16 -290 -25 -867 -75 -1919 -107 -2825 -86 -448 11 -635 19
-1095 46 -249 15 -319 21 -660 50 -300 26 -746 73 -950 101 -60 8 -148 19
-195 24 -47 6 -96 12 -110 15 -14 3 -59 10 -100 15 -126 16 -279 39 -405 60
-244 40 -362 60 -445 75 -47 9 -123 23 -170 31 -47 9 -105 19 -130 24 -218 39
-672 136 -945 200 -322 76 -1055 268 -1145 300 -14 4 -65 20 -115 35 -381 112
-1004 321 -1290 432 -22 8 -49 19 -60 23 -459 177 -808 322 -1080 449 -33 15
-98 45 -145 67 -190 88 -724 358 -880 446 -246 138 -314 177 -435 250 -304
184 -502 312 -800 518 -249 172 -719 543 -890 701 -27 25 -70 64 -95 85 -272
235 -635 617 -916 964 -330 407 -643 908 -827 1320 -246 553 -369 1000 -434
1572 -22 189 -25 708 -5 898 38 382 114 737 233 1093 143 430 373 897 645
1311 124 189 219 320 363 501 308 389 712 803 1141 1171 450 386 960 750 1580
1126 93 56 418 241 523 297 42 22 112 60 155 83 118 63 513 259 637 316 61 27
153 70 205 94 92 44 503 219 685 293 370 150 1079 401 1455 515 58 18 123 38
145 46 35 12 163 48 535 154 508 143 1340 333 1885 430 66 12 154 28 195 35
206 39 658 110 925 146 264 35 296 39 555 69 232 27 349 39 675 70 186 17 501
40 675 50 91 5 197 12 235 15 435 36 1735 49 2360 25z m13907 -1547 c253 -259
365 -383 416 -456 152 -221 231 -513 204 -756 -32 -281 -168 -509 -395 -663
-141 -96 -282 -138 -477 -144 -117 -4 -136 -7 -142 -22 -4 -9 -64 -242 -134
-517 -70 -275 -130 -504 -134 -508 -5 -6 -435 429 -478 485 -11 14 2 75 82
391 53 206 96 379 96 384 0 6 -32 38 -70 72 l-70 63 -235 -227 c-129 -125
-238 -225 -243 -223 -15 5 -407 418 -407 428 0 7 1862 1808 1871 1810 0 0 53
-53 116 -117z m-29339 -564 c207 -42 371 -128 527 -276 200 -190 312 -417 342
-691 31 -280 -67 -604 -241 -803 l-46 -52 148 -141 c81 -78 147 -146 147 -151
-1 -6 -94 -105 -208 -222 l-207 -212 -845 810 c-465 446 -889 853 -944 905
l-98 94 75 83 c42 45 156 164 254 264 218 222 320 294 511 357 176 59 403 72
585 35z m31286 -1728 l161 -283 -450 -742 c-247 -407 -447 -742 -446 -743 2
-2 299 164 660 368 387 219 661 368 666 363 23 -24 289 -509 283 -515 -5 -4
-498 -285 -1098 -624 -599 -339 -1108 -627 -1130 -640 l-41 -23 -161 285 -161
286 128 211 c522 859 769 1271 765 1274 -2 2 -295 -161 -651 -363 -357 -201
-652 -367 -657 -368 -10 -2 -299 503 -294 516 3 9 2259 1288 2264 1284 1 -2
74 -130 162 -286z m-33099 4 c139 -74 258 -139 263 -144 5 -5 -88 -193 -241
-482 l-251 -473 27 -16 c15 -9 93 -51 174 -93 l147 -77 34 62 c19 35 110 205
202 378 92 173 170 318 173 322 6 6 505 -251 525 -271 4 -4 -82 -178 -192
-386 -111 -208 -201 -381 -201 -386 0 -4 44 -31 98 -60 53 -28 134 -72 178
-96 l82 -43 247 467 c136 258 251 472 256 477 9 10 529 -264 529 -279 0 -5
-175 -338 -389 -740 -280 -528 -392 -730 -404 -729 -16 2 -2274 1198 -2290
1213 -5 5 158 323 361 707 203 385 379 718 391 742 12 23 23 42 24 42 2 0 118
-61 257 -135z m-420 -2740 c88 -23 218 -85 293 -139 77 -54 170 -151 226 -233
23 -35 45 -63 49 -63 4 0 232 90 507 200 274 110 500 198 502 197 3 -4 -115
-689 -120 -693 -1 -1 -167 -68 -369 -149 l-366 -146 -7 -77 c-3 -42 -7 -86 -8
-96 -2 -18 25 -24 318 -76 239 -42 321 -60 322 -71 3 -17 -92 -568 -100 -575
-6 -6 -2549 436 -2559 445 -11 9 98 623 128 721 118 385 425 686 779 764 91
20 312 15 405 -9z m33550 -724 l1305 -429 0 -288 0 -287 -1290 -433 c-709
-238 -1296 -433 -1303 -433 -10 -1 -12 66 -10 316 l3 317 153 50 152 51 0 275
c0 151 -3 338 -7 416 l-6 140 -156 50 -156 49 -3 318 c-1 174 1 317 6 317 4 0
595 -193 1312 -429z m-24188 -8499 c147 -49 270 -91 273 -94 4 -3 -114 -352
-261 -774 l-268 -769 0 -100 c-1 -89 2 -106 26 -156 75 -152 254 -246 418
-220 119 19 229 91 283 184 14 23 144 388 291 811 146 423 268 771 271 774 4
5 563 -173 572 -181 1 -2 -121 -360 -272 -796 -180 -520 -288 -818 -315 -868
-186 -346 -581 -551 -986 -512 -126 11 -226 39 -343 94 -121 58 -198 114 -292
212 -213 223 -307 529 -254 828 21 121 554 1655 574 1655 9 0 136 -40 283 -88z
m14743 -242 c258 -30 495 -137 674 -305 96 -91 162 -180 221 -300 174 -351
150 -737 -66 -1062 -124 -186 -324 -344 -529 -418 -27 -10 -54 -22 -58 -26 -5
-4 17 -91 48 -194 31 -103 53 -191 48 -195 -13 -13 -568 -168 -574 -161 -10
10 -750 2453 -745 2459 5 5 383 114 562 162 169 46 275 56 419 40z m-12326
-464 c430 -96 785 -177 788 -180 3 -2 -26 -133 -63 -290 -56 -236 -71 -285
-83 -281 -55 16 -475 105 -479 101 -2 -3 -107 -438 -233 -967 -125 -528 -229
-962 -231 -964 -4 -4 -581 124 -587 131 -2 2 98 435 222 962 125 526 227 962
227 968 0 6 -107 34 -237 63 -131 29 -241 55 -244 57 -4 2 92 425 130 572 1 3
-33 11 790 -172z m10912 68 c150 -26 375 -109 453 -167 20 -15 16 -23 -295
-499 -3 -5 -35 5 -70 22 -115 53 -216 73 -348 68 -202 -9 -344 -71 -487 -214
-134 -133 -199 -290 -198 -479 0 -117 19 -200 69 -300 172 -350 598 -492 960
-321 101 48 197 123 252 197 25 33 43 47 53 44 21 -9 472 -286 489 -301 29
-27 -171 -250 -321 -357 -140 -100 -360 -192 -543 -228 -106 -21 -418 -19
-522 4 -465 100 -841 430 -982 861 -50 153 -64 237 -65 401 0 169 16 271 65
413 154 441 552 774 1024 856 113 20 350 20 466 0z m-9276 -390 c424 -65 774
-120 778 -124 6 -5 -79 -569 -88 -578 -1 -1 -220 31 -486 72 -266 41 -486 71
-489 66 -7 -12 -63 -370 -59 -375 2 -2 173 -29 379 -61 206 -31 378 -60 382
-63 5 -5 -79 -568 -87 -579 -1 -1 -174 25 -386 57 -211 33 -385 58 -387 57 -1
-2 -38 -223 -82 -491 -44 -268 -81 -489 -82 -491 -4 -3 -592 86 -596 91 -3 2
352 2198 399 2473 6 34 16 62 23 62 6 1 358 -52 781 -116z m1217 -149 c368
-29 457 -45 603 -114 122 -57 216 -122 317 -219 141 -136 236 -292 294 -487
26 -83 28 -104 28 -270 1 -166 -1 -187 -26 -277 -88 -316 -296 -559 -604 -705
-132 -62 -261 -93 -415 -100 l-126 -6 -16 -199 c-8 -110 -17 -201 -19 -203 -4
-4 -597 41 -602 46 -2 2 41 569 95 1259 54 690 99 1265 99 1278 0 27 -29 28
372 -3z m2334 -118 c415 -90 735 -363 836 -714 33 -112 33 -332 0 -446 -43
-151 -130 -294 -245 -405 l-66 -62 286 -448 c157 -246 288 -453 290 -460 4
-10 -68 -12 -352 -10 l-358 3 -211 330 c-165 257 -216 330 -232 328 -10 0 -54
-4 -96 -8 l-78 -7 0 -324 0 -324 -305 0 -305 0 0 1286 0 1286 383 -5 c292 -4
399 -8 453 -20z m3563 -959 c18 -150 35 -282 37 -293 5 -20 -19 -23 -857 -119
-594 -68 -863 -95 -868 -88 -10 17 -74 563 -66 570 6 6 1627 198 1695 201 l26
1 33 -272z"/>
<path d="M42898 38613 c-2 -5 -2 -59 0 -120 l4 -113 66 0 c37 0 85 5 107 11
47 13 115 77 115 109 0 32 -68 96 -115 109 -45 12 -172 15 -177 4z"/>
<path d="M42968 37773 l-58 -4 0 -284 0 -285 118 0 c123 0 188 13 267 52 139
70 207 203 161 313 -25 59 -100 129 -174 164 -63 28 -182 53 -237 49 -11 -1
-46 -3 -77 -5z"/>
<path d="M45301 37714 c-73 -162 -131 -297 -128 -300 5 -5 409 -46 412 -41 4
4 -140 626 -146 631 -3 3 -65 -127 -138 -290z"/>
<path d="M40226 37858 c-92 -414 -123 -564 -120 -567 4 -5 406 38 411 43 4 4
-257 578 -267 589 -4 5 -15 -24 -24 -65z"/>
<path d="M51771 36449 c-111 -143 -201 -263 -199 -265 5 -5 379 -134 388 -134
6 0 21 649 14 658 -1 2 -92 -115 -203 -259z"/>
<path d="M32595 36331 c-96 -36 -115 -45 -115 -57 0 -9 86 -201 95 -212 6 -7
126 60 158 87 46 41 73 104 61 139 -19 54 -116 75 -199 43z"/>
<path d="M33075 35617 c-40 -11 -231 -90 -243 -102 -4 -4 227 -507 237 -518 4
-4 57 16 117 44 89 43 121 65 175 118 96 97 134 193 115 294 -9 50 -75 120
-138 147 -64 28 -188 36 -263 17z"/>
<path d="M41962 34838 c-7 -172 -15 -380 -18 -463 -3 -82 -7 -161 -9 -175 -2
-14 -7 -104 -10 -200 -3 -96 -8 -200 -11 -230 -2 -30 -11 -174 -19 -320 -32
-585 -73 -992 -127 -1235 -155 -706 -454 -1248 -900 -1630 -430 -368 -972
-565 -1558 -565 -230 0 -452 27 -660 82 -95 24 -272 83 -329 109 -24 11 -64
28 -90 39 -134 52 -362 190 -517 311 -124 97 -336 313 -419 426 -312 427 -444
894 -413 1456 10 183 52 438 93 562 7 22 19 60 25 85 16 60 96 282 126 348 13
29 24 55 24 58 0 6 140 287 170 339 12 22 34 60 48 85 29 53 39 68 167 264 53
82 139 205 191 273 52 68 94 128 94 132 0 5 -30 0 -67 -11 -63 -17 -239 -64
-408 -108 -38 -10 -158 -44 -265 -75 -107 -31 -226 -66 -265 -76 -38 -11 -88
-26 -110 -34 -22 -8 -101 -33 -175 -55 -234 -72 -764 -247 -815 -269 -11 -5
-60 -23 -110 -41 -220 -78 -698 -261 -784 -301 -24 -11 -67 -29 -95 -40 -28
-11 -60 -24 -71 -29 -11 -5 -72 -31 -135 -58 -464 -199 -1132 -528 -1388 -684
-34 -21 -65 -38 -67 -38 -3 0 -35 -18 -71 -40 -36 -22 -67 -40 -69 -40 -2 0
-72 -42 -156 -94 -682 -415 -1221 -828 -1708 -1309 -516 -510 -882 -1004
-1154 -1559 -31 -64 -57 -119 -57 -122 0 -2 -13 -33 -29 -68 -71 -154 -136
-336 -195 -548 -101 -362 -146 -679 -147 -1040 0 -226 6 -338 32 -530 18 -139
61 -372 79 -435 5 -16 16 -59 26 -95 320 -1215 1232 -2409 2595 -3397 138
-100 496 -343 572 -389 27 -16 59 -36 72 -44 13 -8 57 -35 97 -59 40 -25 112
-68 159 -97 162 -98 454 -257 744 -404 266 -134 334 -167 540 -260 39 -17 79
-35 90 -40 119 -54 227 -100 235 -100 6 0 -12 36 -40 80 -27 44 -50 82 -50 84
0 2 -25 48 -56 102 -129 227 -274 535 -360 765 -103 275 -156 475 -200 754
-25 153 -25 490 0 630 18 103 57 247 81 300 7 17 25 57 39 89 42 96 135 225
227 316 339 338 872 444 1514 303 133 -29 381 -107 490 -153 255 -109 469
-220 700 -363 165 -102 603 -428 655 -487 3 -3 41 -36 85 -74 44 -37 163 -150
264 -249 l183 -182 17 25 c63 96 255 359 334 457 448 559 910 889 1372 980
134 26 396 23 532 -6 57 -12 113 -25 125 -30 13 -5 57 -22 98 -37 507 -182
1051 -714 1536 -1500 250 -405 524 -938 724 -1409 23 -55 53 -123 66 -152 12
-29 52 -128 89 -220 37 -92 73 -181 80 -198 7 -16 37 -93 65 -170 28 -77 55
-149 60 -160 5 -11 17 -41 25 -67 9 -26 23 -66 33 -88 l17 -40 58 157 c81 219
264 685 298 761 16 35 29 65 29 67 0 3 11 28 24 57 14 29 39 87 56 128 53 124
214 468 272 580 30 58 81 157 113 220 32 63 71 135 85 160 15 25 71 119 124
210 123 209 103 177 233 372 530 794 1075 1246 1643 1364 119 25 389 25 520 0
109 -21 279 -81 395 -139 421 -210 850 -628 1242 -1210 36 -53 69 -100 74
-102 4 -3 77 64 162 148 411 409 840 739 1261 970 163 90 403 207 423 207 3 0
19 6 36 14 155 69 413 145 627 185 171 31 364 42 530 30 533 -41 913 -290
1106 -724 78 -176 115 -379 116 -635 2 -206 -14 -346 -63 -570 -98 -446 -313
-954 -617 -1460 -28 -46 -49 -86 -47 -88 5 -5 146 55 365 156 36 16 88 40 115
52 164 74 621 306 780 395 28 15 91 50 140 77 397 220 970 595 1295 847 47 37
114 89 149 116 343 267 770 669 1057 995 104 118 322 388 384 476 134 190 320
474 320 489 0 3 19 35 41 72 74 121 209 399 289 598 69 170 165 464 189 575
40 183 50 236 65 320 30 180 36 226 47 380 25 335 -6 779 -77 1095 -44 196
-142 523 -188 630 -7 17 -33 77 -57 135 -42 100 -163 351 -211 435 -77 134
-99 171 -161 270 -212 337 -470 656 -807 999 -431 439 -929 838 -1535 1228
-156 100 -413 256 -540 328 -155 88 -234 131 -330 182 -149 79 -695 350 -770
381 -33 14 -98 43 -145 65 -99 46 -89 42 -381 165 -124 52 -297 123 -385 157
-87 34 -190 75 -229 90 -38 16 -97 37 -130 48 -33 12 -130 46 -215 77 -232 85
-749 257 -930 310 -25 7 -83 25 -130 40 -80 25 -258 77 -325 95 -16 5 -55 16
-85 25 -30 9 -77 22 -105 30 -27 7 -90 25 -140 38 -309 86 -445 120 -451 114
-3 -3 39 -65 94 -139 138 -186 281 -401 367 -553 59 -104 193 -373 224 -450
18 -44 36 -89 41 -100 84 -192 167 -522 200 -797 18 -146 8 -513 -18 -653 -80
-427 -261 -789 -549 -1095 -359 -382 -829 -633 -1383 -739 -155 -30 -239 -36
-470 -36 -264 0 -421 17 -600 65 -456 123 -780 308 -1096 624 -278 278 -473
592 -621 996 -125 342 -192 675 -228 1130 -9 107 -20 247 -25 310 -5 63 -12
176 -15 250 -3 74 -8 155 -10 180 -12 111 -46 868 -61 1348 -4 117 -11 215
-15 217 -4 3 -38 -48 -75 -112 -73 -128 -85 -148 -164 -298 -29 -55 -67 -125
-84 -155 -18 -30 -54 -98 -80 -150 -27 -52 -52 -99 -56 -105 -4 -5 -29 -50
-55 -100 -107 -202 -142 -266 -213 -390 -41 -71 -79 -136 -85 -144 -8 -10 -25
-12 -62 -7 -140 18 -419 35 -575 36 -157 0 -448 -18 -572 -36 l-47 -7 -34 54
c-45 71 -137 235 -225 399 -24 47 -57 108 -72 135 -15 28 -51 95 -80 150 -29
55 -70 131 -91 168 -22 38 -39 71 -39 73 0 4 -126 232 -236 427 -21 37 -41 67
-44 67 -3 0 -12 -141 -18 -312z"/>
<path d="M57823 33608 c-299 -287 -282 -256 -169 -329 109 -72 236 -104 342
-87 70 11 119 36 165 85 65 68 74 94 74 223 0 107 -2 120 -31 187 -30 69 -98
173 -112 173 -4 0 -125 -114 -269 -252z"/>
<path d="M28531 33444 c-66 -18 -161 -67 -192 -100 l-23 -25 64 -63 c157 -155
644 -616 651 -616 13 0 68 90 90 149 34 87 38 231 8 323 -80 251 -347 400
-598 332z"/>
<path d="M26333 28982 c-79 -28 -154 -91 -211 -176 -48 -71 -101 -200 -88
-213 4 -5 696 -131 724 -133 1 0 2 39 2 86 0 195 -89 369 -217 426 -65 29
-146 33 -210 10z"/>
<path d="M59810 28130 c0 -173 2 -211 14 -208 40 9 606 204 606 208 0 3 -134
50 -297 104 -164 54 -304 101 -310 104 -10 3 -13 -42 -13 -208z"/>
<path d="M50548 19513 c-10 -2 -18 -7 -18 -10 0 -9 280 -926 284 -930 10 -10
133 63 179 105 116 108 163 226 155 386 -5 82 -10 105 -41 171 -64 134 -183
232 -328 270 -50 14 -192 18 -231 8z"/>
<path d="M41442 18128 c-18 -238 -36 -457 -39 -485 l-6 -53 36 0 c214 0 433
179 478 391 16 73 6 202 -20 268 -54 134 -168 243 -305 291 -30 11 -68 20 -83
20 l-28 0 -33 -432z"/>
<path d="M43390 18119 l0 -362 59 6 c32 4 91 18 132 33 137 49 219 118 267
222 32 71 28 168 -11 234 -71 121 -263 228 -409 228 l-38 0 0 -361z"/>
</g>
</svg>
